<svg width="24" height="26" viewBox="0 0 24 26" fill="none" xmlns="http://www.w3.org/2000/svg">
<path fill-rule="evenodd" clip-rule="evenodd" d="M5 22.2507C3.34315 22.2507 2 20.9075 2 19.2507V11.5867C2 10.7363 2.36096 9.92579 2.99311 9.35686L9.9931 3.05686C11.134 2.03004 12.866 2.03004 14.0069 3.05686L21.0069 9.35686C21.639 9.92579 22 10.7363 22 11.5867V19.2507C22 20.9075 20.6569 22.2507 19 22.2507H5ZM20.5 11.5867V19.2507C20.5 20.0791 19.8284 20.7507 19 20.7507H16V15.2507C16 13.5938 14.6569 12.2507 13 12.2507H11C9.34315 12.2507 8 13.5938 8 15.2507V20.7507H5C4.17157 20.7507 3.5 20.0791 3.5 19.2507V11.5867C3.5 11.1615 3.68048 10.7563 3.99655 10.4718L10.9966 4.1718C11.567 3.65839 12.433 3.65839 13.0034 4.1718L20.0034 10.4718C20.3195 10.7563 20.5 11.1615 20.5 11.5867ZM9.5 20.7507V15.2507C9.5 14.4222 10.1716 13.7507 11 13.7507H13C13.8284 13.7507 14.5 14.4222 14.5 15.2507V20.7507H9.5Z" fill="white"/>
</svg>
