<svg width="24" height="26" viewBox="0 0 24 26" fill="none" xmlns="http://www.w3.org/2000/svg">
<path fill-rule="evenodd" clip-rule="evenodd" d="M6.32501 18.2312H4C3.58579 18.2312 3.25 17.8954 3.25 17.4812C3.25 17.067 3.58579 16.7312 4 16.7312H6.32501C6.67247 15.0195 8.18578 13.7312 10 13.7312C11.8142 13.7312 13.3275 15.0195 13.675 16.7312H20C20.4142 16.7312 20.75 17.067 20.75 17.4812C20.75 17.8954 20.4142 18.2312 20 18.2312H13.675C13.3275 19.9429 11.8142 21.2312 10 21.2312C8.18578 21.2312 6.67247 19.9429 6.32501 18.2312ZM7.75 17.4812C7.75 16.2385 8.75736 15.2312 10 15.2312C11.2426 15.2312 12.25 16.2385 12.25 17.4812C12.25 18.7238 11.2426 19.7312 10 19.7312C8.75736 19.7312 7.75 18.7238 7.75 17.4812Z" fill="white"/>
<path fill-rule="evenodd" clip-rule="evenodd" d="M10.325 8.23117H4C3.58579 8.23117 3.25 7.89538 3.25 7.48117C3.25 7.06696 3.58579 6.73117 4 6.73117H10.325C10.6725 5.01949 12.1858 3.73117 14 3.73117C15.8142 3.73117 17.3275 5.01949 17.675 6.73117H20C20.4142 6.73117 20.75 7.06696 20.75 7.48117C20.75 7.89538 20.4142 8.23117 20 8.23117H17.675C17.3275 9.94285 15.8142 11.2312 14 11.2312C12.1858 11.2312 10.6725 9.94285 10.325 8.23117ZM11.75 7.48117C11.75 6.23853 12.7574 5.23117 14 5.23117C15.2426 5.23117 16.25 6.23853 16.25 7.48117C16.25 8.72381 15.2426 9.73117 14 9.73117C12.7574 9.73117 11.75 8.72381 11.75 7.48117Z" fill="white"/>
</svg>
