<svg width="24" height="26" viewBox="0 0 24 26" fill="none" xmlns="http://www.w3.org/2000/svg">
<path fill-rule="evenodd" clip-rule="evenodd" d="M6.32501 18.2308H4C3.58579 18.2308 3.25 17.895 3.25 17.4808C3.25 17.0666 3.58579 16.7308 4 16.7308H6.32501C6.67247 15.0192 8.18578 13.7308 10 13.7308C11.8142 13.7308 13.3275 15.0192 13.675 16.7308H20C20.4142 16.7308 20.75 17.0666 20.75 17.4808C20.75 17.895 20.4142 18.2308 20 18.2308H13.675C13.3275 19.9425 11.8142 21.2308 10 21.2308C8.18578 21.2308 6.67247 19.9425 6.32501 18.2308ZM7.75 17.4808C7.75 16.2382 8.75736 15.2308 10 15.2308C11.2426 15.2308 12.25 16.2382 12.25 17.4808C12.25 18.7235 11.2426 19.7308 10 19.7308C8.75736 19.7308 7.75 18.7235 7.75 17.4808Z" fill="white"/>
<path fill-rule="evenodd" clip-rule="evenodd" d="M10.325 8.23083H4C3.58579 8.23083 3.25 7.89505 3.25 7.48083C3.25 7.06662 3.58579 6.73083 4 6.73083H10.325C10.6725 5.01915 12.1858 3.73083 14 3.73083C15.8142 3.73083 17.3275 5.01915 17.675 6.73083H20C20.4142 6.73083 20.75 7.06662 20.75 7.48083C20.75 7.89505 20.4142 8.23083 20 8.23083H17.675C17.3275 9.94252 15.8142 11.2308 14 11.2308C12.1858 11.2308 10.6725 9.94252 10.325 8.23083ZM11.75 7.48083C11.75 6.23819 12.7574 5.23083 14 5.23083C15.2426 5.23083 16.25 6.23819 16.25 7.48083C16.25 8.72348 15.2426 9.73083 14 9.73083C12.7574 9.73083 11.75 8.72348 11.75 7.48083Z" fill="white"/>
</svg>
