<svg width="50" height="53" viewBox="0 0 50 53" fill="none" xmlns="http://www.w3.org/2000/svg">
<rect y="0.616302" width="50" height="51.7172" rx="10" fill="white"/>
<path fill-rule="evenodd" clip-rule="evenodd" d="M20 16.3128C20.4142 16.3128 20.75 16.6486 20.75 17.0628V18.0628H29.25V17.0628C29.25 16.6486 29.5858 16.3128 30 16.3128C30.4142 16.3128 30.75 16.6486 30.75 17.0628V18.0628H32C33.6569 18.0628 35 19.4059 35 21.0628V33.0628C35 34.7196 33.6569 36.0628 32 36.0628H18C16.3431 36.0628 15 34.7196 15 33.0628V21.0628C15 19.4059 16.3431 18.0628 18 18.0628H19.25V17.0628C19.25 16.6486 19.5858 16.3128 20 16.3128ZM29.25 19.5628V21.0628C29.25 21.477 29.5858 21.8128 30 21.8128C30.4142 21.8128 30.75 21.477 30.75 21.0628V19.5628H32C32.8284 19.5628 33.5 20.2343 33.5 21.0628V24.3128H16.5V21.0628C16.5 20.2343 17.1716 19.5628 18 19.5628H19.25V21.0628C19.25 21.477 19.5858 21.8128 20 21.8128C20.4142 21.8128 20.75 21.477 20.75 21.0628V19.5628H29.25ZM16.5 25.8128V33.0628C16.5 33.8912 17.1716 34.5628 18 34.5628H32C32.8284 34.5628 33.5 33.8912 33.5 33.0628V25.8128H16.5Z" fill="#9BAAD3"/>
</svg>
