<svg width="90" height="93" viewBox="0 0 90 93" fill="none" xmlns="http://www.w3.org/2000/svg">
<g filter="url(#filter0_d)">
<rect x="20" y="10.8042" width="50" height="51.7172" rx="10" fill="#FF6647"/>
</g>
<path fill-rule="evenodd" clip-rule="evenodd" d="M38 46.2507C36.3431 46.2507 35 44.9075 35 43.2507V35.5867C35 34.7363 35.361 33.9258 35.9931 33.3569L42.9931 27.0569C44.134 26.03 45.866 26.03 47.0069 27.0569L54.0069 33.3569C54.639 33.9258 55 34.7363 55 35.5867V43.2507C55 44.9075 53.6569 46.2507 52 46.2507H38ZM53.5 35.5867V43.2507C53.5 44.0791 52.8284 44.7507 52 44.7507H49V39.2507C49 37.5938 47.6569 36.2507 46 36.2507H44C42.3431 36.2507 41 37.5938 41 39.2507V44.7507H38C37.1716 44.7507 36.5 44.0791 36.5 43.2507V35.5867C36.5 35.1615 36.6805 34.7563 36.9966 34.4718L43.9966 28.1718C44.567 27.6584 45.433 27.6584 46.0034 28.1718L53.0034 34.4718C53.3195 34.7563 53.5 35.1615 53.5 35.5867ZM42.5 44.7507V39.2507C42.5 38.4222 43.1716 37.7507 44 37.7507H46C46.8284 37.7507 47.5 38.4222 47.5 39.2507V44.7507H42.5Z" fill="white"/>
<path fill-rule="evenodd" clip-rule="evenodd" d="M47.584 10.8042H60C65.5228 10.8042 70 15.2814 70 20.8042V32.6477C68.2704 33.2395 66.4214 33.5598 64.5 33.5598C54.835 33.5598 47 25.4557 47 15.4587C47 13.8495 47.203 12.2894 47.584 10.8042Z" fill="#FF8D76"/>
<defs>
<filter id="filter0_d" x="0" y="0.804199" width="90" height="91.7172" filterUnits="userSpaceOnUse" color-interpolation-filters="sRGB">
<feFlood flood-opacity="0" result="BackgroundImageFix"/>
<feColorMatrix in="SourceAlpha" type="matrix" values="0 0 0 0 0 0 0 0 0 0 0 0 0 0 0 0 0 0 127 0"/>
<feOffset dy="10"/>
<feGaussianBlur stdDeviation="10"/>
<feColorMatrix type="matrix" values="0 0 0 0 0.345098 0 0 0 0 0.360784 0 0 0 0 0.898039 0 0 0 0.25 0"/>
<feBlend mode="normal" in2="BackgroundImageFix" result="effect1_dropShadow"/>
<feBlend mode="normal" in="SourceGraphic" in2="effect1_dropShadow" result="shape"/>
</filter>
</defs>
</svg>
