<svg width="92" height="94" viewBox="0 0 92 94" fill="none" xmlns="http://www.w3.org/2000/svg">
<g filter="url(#filter0_f)">
<ellipse cx="46" cy="47.2367" rx="18" ry="18.6182" fill="#F86549"/>
</g>
<ellipse cx="46" cy="36.8933" rx="26" ry="26.8929" fill="#F86549"/>
<path fill-rule="evenodd" clip-rule="evenodd" d="M40.325 42.2312H38C37.5858 42.2312 37.25 41.8954 37.25 41.4812C37.25 41.067 37.5858 40.7312 38 40.7312H40.325C40.6725 39.0195 42.1858 37.7312 44 37.7312C45.8142 37.7312 47.3275 39.0195 47.675 40.7312H54C54.4142 40.7312 54.75 41.067 54.75 41.4812C54.75 41.8954 54.4142 42.2312 54 42.2312H47.675C47.3275 43.9429 45.8142 45.2312 44 45.2312C42.1858 45.2312 40.6725 43.9429 40.325 42.2312ZM41.75 41.4812C41.75 40.2385 42.7574 39.2312 44 39.2312C45.2426 39.2312 46.25 40.2385 46.25 41.4812C46.25 42.7238 45.2426 43.7312 44 43.7312C42.7574 43.7312 41.75 42.7238 41.75 41.4812Z" fill="white"/>
<path fill-rule="evenodd" clip-rule="evenodd" d="M44.325 32.2312H38C37.5858 32.2312 37.25 31.8954 37.25 31.4812C37.25 31.067 37.5858 30.7312 38 30.7312H44.325C44.6725 29.0195 46.1858 27.7312 48 27.7312C49.8142 27.7312 51.3275 29.0195 51.675 30.7312H54C54.4142 30.7312 54.75 31.067 54.75 31.4812C54.75 31.8954 54.4142 32.2312 54 32.2312H51.675C51.3275 33.9429 49.8142 35.2312 48 35.2312C46.1858 35.2312 44.6725 33.9429 44.325 32.2312ZM45.75 31.4812C45.75 30.2385 46.7574 29.2312 48 29.2312C49.2426 29.2312 50.25 30.2385 50.25 31.4812C50.25 32.7238 49.2426 33.7312 48 33.7312C46.7574 33.7312 45.75 32.7238 45.75 31.4812Z" fill="white"/>
<defs>
<filter id="filter0_f" x="0" y="0.61853" width="92" height="93.2364" filterUnits="userSpaceOnUse" color-interpolation-filters="sRGB">
<feFlood flood-opacity="0" result="BackgroundImageFix"/>
<feBlend mode="normal" in="SourceGraphic" in2="BackgroundImageFix" result="shape"/>
<feGaussianBlur stdDeviation="14" result="effect1_foregroundBlur"/>
</filter>
</defs>
</svg>
