<svg width="23" height="21" viewBox="0 0 23 21" fill="none" xmlns="http://www.w3.org/2000/svg">
<path d="M20.046 2.64635C19.5417 2.12452 18.943 1.71058 18.284 1.42815C17.6251 1.14573 16.9188 1.00037 16.2055 1.00037C15.4922 1.00037 14.7858 1.14573 14.1269 1.42815C13.4679 1.71058 12.8692 2.12452 12.3649 2.64635L11.3184 3.72881L10.2719 2.64635C9.2533 1.59279 7.87182 1.00091 6.43134 1.00091C4.99086 1.00091 3.60938 1.59279 2.5908 2.64635C1.57223 3.6999 1 5.12883 1 6.61878C1 8.10873 1.57223 9.53766 2.5908 10.5912L3.63732 11.6737L11.3184 19.6185L18.9995 11.6737L20.046 10.5912C20.5505 10.0696 20.9507 9.45036 21.2237 8.76875C21.4968 8.08715 21.6373 7.35658 21.6373 6.61878C21.6373 5.88098 21.4968 5.15042 21.2237 4.46881C20.9507 3.78721 20.5505 3.16793 20.046 2.64635V2.64635Z" stroke="#FA9538" stroke-linecap="round" stroke-linejoin="round"/>
</svg>
