<svg width="50" height="52" viewBox="0 0 50 52" fill="none" xmlns="http://www.w3.org/2000/svg">
<rect y="0.0504761" width="50" height="51.7172" rx="10" fill="white"/>
<path d="M28.7331 18.1703C28.928 17.7879 29.3981 17.633 29.7623 17.8601C31.2476 18.7863 32.4358 20.1292 33.1733 21.729C34.0196 23.5649 34.2233 25.6322 33.7513 27.5979C33.2794 29.5637 32.1594 31.3132 30.5719 32.5648C28.9843 33.8163 27.0216 34.4969 25 34.4969C22.9784 34.4969 21.0157 33.8163 19.4282 32.5648C17.8406 31.3133 16.7206 29.5637 16.2487 27.598C15.7768 25.6323 15.9804 23.5649 16.8267 21.729C17.5642 20.1292 18.7524 18.7864 20.2377 17.8601C20.6019 17.633 21.072 17.7879 21.2669 18.1703C21.4617 18.5527 21.3069 19.0174 20.9469 19.251C19.7709 20.0141 18.8295 21.0971 18.2382 22.3797C17.538 23.8986 17.3696 25.6089 17.76 27.2351C18.1504 28.8614 19.077 30.3088 20.3904 31.3442C21.7038 32.3796 23.3276 32.9427 25 32.9427C26.6725 32.9427 28.2962 32.3796 29.6096 31.3442C30.923 30.3088 31.8496 28.8613 32.24 27.2351C32.6304 25.6089 32.462 23.8985 31.7618 22.3797C31.1705 21.0971 30.2291 20.0141 29.0531 19.251C28.6931 19.0174 28.5383 18.5527 28.7331 18.1703Z" fill="#9BAAD3"/>
<path fill-rule="evenodd" clip-rule="evenodd" d="M25 15.7469C25.4142 15.7469 25.75 16.0827 25.75 16.4969V21.4969C25.75 21.9112 25.4142 22.2469 25 22.2469C24.5858 22.2469 24.25 21.9112 24.25 21.4969V16.4969C24.25 16.0827 24.5858 15.7469 25 15.7469Z" fill="#9BAAD3"/>
</svg>
