<svg width="18" height="19" viewBox="0 0 18 19" fill="none" xmlns="http://www.w3.org/2000/svg">
<path d="M8.19769 16.9554C10.1779 16.9554 11.9967 16.2227 13.4168 15.0094L16.7117 18.4175C16.8402 18.5504 17.0082 18.6185 17.1763 18.6185C17.3443 18.6185 17.5124 18.5504 17.6409 18.4175C17.8979 18.1516 17.8979 17.7188 17.6409 17.453L14.3591 14.0586C15.6244 12.5658 16.3921 10.613 16.3921 8.4796C16.3921 3.80375 12.715 0.000366211 8.1944 0.000366211C3.67381 0.000366211 0 3.80034 0 8.47619C0 13.152 3.6771 16.9554 8.19769 16.9554ZM8.19769 1.36018C11.9901 1.36018 15.0774 4.55011 15.0774 8.47619C15.0774 12.4023 11.9901 15.5922 8.19769 15.5922C4.40527 15.5922 1.31796 12.3989 1.31796 8.47619C1.31796 4.55352 4.40527 1.36018 8.19769 1.36018Z" fill="#FA9538"/>
</svg>
