<svg width="50" height="52" viewBox="0 0 50 52" fill="none" xmlns="http://www.w3.org/2000/svg">
<rect y="0.0525513" width="50" height="51.7172" rx="10" fill="white"/>
<path fill-rule="evenodd" clip-rule="evenodd" d="M25 27.999C26.3807 27.999 27.5 26.8797 27.5 25.499C27.5 24.1183 26.3807 22.999 25 22.999C23.6193 22.999 22.5 24.1183 22.5 25.499C22.5 26.8797 23.6193 27.999 25 27.999ZM29 25.499C29 27.7082 27.2091 29.499 25 29.499C22.7909 29.499 21 27.7082 21 25.499C21 23.2899 22.7909 21.499 25 21.499C27.2091 21.499 29 23.2899 29 25.499Z" fill="#9BAAD3"/>
<path fill-rule="evenodd" clip-rule="evenodd" d="M23.9047 16.3409L23.5172 17.5036C23.1904 18.4839 22.4733 19.1784 21.7221 19.5966C21.6581 19.6323 21.5946 19.669 21.5319 19.7067C20.7932 20.1501 19.8319 20.4247 18.8183 20.2173L17.6165 19.9714C17.4057 19.9282 17.1909 20.0248 17.0833 20.2112L16.4623 21.2868C16.3547 21.4732 16.3784 21.7075 16.5212 21.8685L17.3362 22.7876C18.0203 23.559 18.2652 24.5258 18.2516 25.3872C18.2504 25.4617 18.2504 25.5363 18.2516 25.6108C18.2652 26.4722 18.0203 27.439 17.3362 28.2104L16.5212 29.1295C16.3784 29.2905 16.3547 29.5248 16.4623 29.7112L17.0833 30.7868C17.1909 30.9732 17.4057 31.0698 17.6165 31.0266L18.8182 30.7807C19.8318 30.5733 20.7932 30.8479 21.5318 31.2913C21.5946 31.329 21.6581 31.3657 21.7221 31.4014C22.4733 31.8197 23.1904 32.5141 23.5172 33.4945L23.9047 34.6571C23.9728 34.8613 24.1638 34.999 24.3791 34.999H25.621C25.8362 34.999 26.0273 34.8613 26.0954 34.6571L26.4829 33.4945C26.8097 32.5141 27.5268 31.8197 28.2779 31.4014C28.342 31.3657 28.4054 31.329 28.4682 31.2913C29.2069 30.8479 30.1682 30.5733 31.1819 30.7807L32.3835 31.0266C32.5944 31.0698 32.8092 30.9732 32.9168 30.7868L33.5377 29.7112C33.6453 29.5248 33.6216 29.2905 33.4788 29.1295L32.6639 28.2104C31.9798 27.439 31.7348 26.4723 31.7485 25.6108C31.7497 25.5363 31.7497 25.4617 31.7485 25.3872C31.7348 24.5257 31.9798 23.559 32.6639 22.7876L33.4788 21.8685C33.6216 21.7075 33.6453 21.4732 33.5377 21.2868L32.9168 20.2112C32.8092 20.0248 32.5944 19.9282 32.3835 19.9714L31.1818 20.2173C30.1682 20.4247 29.2068 20.1501 28.4682 19.7067C28.4054 19.669 28.342 19.6323 28.2779 19.5966C27.5268 19.1784 26.8097 18.4839 26.4829 17.5036L26.0954 16.3409C26.0273 16.1367 25.8362 15.999 25.621 15.999H24.3791C24.1638 15.999 23.9728 16.1367 23.9047 16.3409ZM22.0941 17.0292C21.9119 17.576 21.4959 18.0057 20.9924 18.2861C20.9141 18.3297 20.8366 18.3746 20.7598 18.4206C20.2651 18.7176 19.6843 18.8634 19.119 18.7477L17.9172 18.5018C17.0738 18.3292 16.2146 18.7157 15.7842 19.4612L15.1632 20.5368C14.7328 21.2823 14.8277 22.2196 15.3989 22.8637L16.2139 23.7828C16.5958 24.2135 16.7609 24.7879 16.7518 25.3634C16.7503 25.4538 16.7503 25.5442 16.7518 25.6346C16.7609 26.2101 16.5958 26.7845 16.2139 27.2151L15.3989 28.1343C14.8277 28.7784 14.7328 29.7157 15.1632 30.4612L15.7842 31.5368C16.2146 32.2823 17.0738 32.6688 17.9172 32.4962L19.1189 32.2503C19.6842 32.1346 20.2651 32.2804 20.7598 32.5774C20.8365 32.6235 20.9141 32.6683 20.9924 32.7119C21.4959 32.9923 21.9119 33.4221 22.0941 33.9688L22.4817 35.1315C22.7539 35.9482 23.5182 36.499 24.3791 36.499H25.621C26.4819 36.499 27.2462 35.9482 27.5184 35.1315L27.9059 33.9688C28.0882 33.4221 28.5042 32.9923 29.0077 32.7119C29.086 32.6683 29.1635 32.6235 29.2403 32.5774C29.735 32.2804 30.3158 32.1346 30.8811 32.2503L32.0828 32.4962C32.9262 32.6688 33.7854 32.2823 34.2158 31.5368L34.8368 30.4612C35.2672 29.7157 35.1723 28.7784 34.6011 28.1343L33.7862 27.2152C33.4042 26.7845 33.2392 26.2102 33.2483 25.6346C33.2497 25.5442 33.2497 25.4538 33.2483 25.3634C33.2392 24.7878 33.4042 24.2135 33.7862 23.7828L34.6011 22.8637C35.1723 22.2196 35.2672 21.2823 34.8368 20.5368L34.2158 19.4612C33.7854 18.7157 32.9262 18.3292 32.0828 18.5018L30.881 18.7477C30.3158 18.8634 29.7349 18.7176 29.2402 18.4206C29.1635 18.3746 29.086 18.3297 29.0077 18.2861C28.5042 18.0057 28.0882 17.576 27.9059 17.0292L27.5184 15.8666C27.2462 15.0499 26.4819 14.499 25.621 14.499H24.3791C23.5182 14.499 22.7539 15.0499 22.4817 15.8666L22.0941 17.0292Z" fill="#9BAAD3"/>
</svg>
