<svg width="24" height="26" viewBox="0 0 24 26" fill="none" xmlns="http://www.w3.org/2000/svg">
<path fill-rule="evenodd" clip-rule="evenodd" d="M5 22.2503C3.34315 22.2503 2 20.9071 2 19.2503V11.5864C2 10.7359 2.36096 9.92542 2.99311 9.35649L9.9931 3.0565C11.134 2.02967 12.866 2.02967 14.0069 3.05649L21.0069 9.35649C21.639 9.92542 22 10.7359 22 11.5864V19.2503C22 20.9071 20.6569 22.2503 19 22.2503H5ZM20.5 11.5864V19.2503C20.5 20.0787 19.8284 20.7503 19 20.7503H16V15.2503C16 13.5934 14.6569 12.2503 13 12.2503H11C9.34315 12.2503 8 13.5934 8 15.2503V20.7503H5C4.17157 20.7503 3.5 20.0787 3.5 19.2503V11.5864C3.5 11.1611 3.68048 10.7559 3.99655 10.4714L10.9966 4.17144C11.567 3.65802 12.433 3.65802 13.0034 4.17144L20.0034 10.4714C20.3195 10.7559 20.5 11.1611 20.5 11.5864ZM9.5 20.7503V15.2503C9.5 14.4219 10.1716 13.7503 11 13.7503H13C13.8284 13.7503 14.5 14.4219 14.5 15.2503V20.7503H9.5Z" fill="white"/>
</svg>
